<?xml version='1.0' encoding='utf-8'?>
<!DOCTYPE svg>
<svg xmlns="http://www.w3.org/2000/svg"  version="1.1" baseProfile="basic" xml:space="preserve" id="svg" gorn="0" x="0px" width="0.1in" y="0px" height="0.10in" xmlns:xml="http://www.w3.org/XML/1998/namespace" viewBox="0 0 7.199 7.199">
    <desc >
        <referenceFile >generic_male_header.svg</referenceFile>
    </desc>
    <g  id="breadboard" gorn="0.1">
        <rect fill="none"  id="connector0pin" gorn="0.1.0" x="2.204" width="2.791" y="2.204" height="2.791"/>
        <rect fill="none"  id="connector0terminal" gorn="0.1.1" x="2.518" width="2.164" y="2.469" height="2.262"/>
        <g >
            <polygon fill="#404040"  points="1.563,0 0.0,1.564 0.0,5.637 1.563,7.199 5.635,7.199 7.199,5.637 7.199,1.564 5.635,0 1.563,0"/>
        </g>
        <g >
            <rect fill="#8D8C8C"  x="2.451" width="2.297" y="2.45" height="2.299"/>
            <rect fill="#8C8663"  x="3.009" width="1.182" y="3.008" height="1.183"/>
            <polygon fill="#B8AF82"  points="2.451,2.45 3.009,3.008 4.19,3.008 4.748,2.45"/>
            <polygon fill="#80795B"  points="4.19,4.19 4.19,3.008 4.748,2.45 4.748,4.749 &#x9;&#x9;"/>
            <polygon fill="#5E5B43"  points="3.009,4.19 4.19,4.19 4.748,4.749 2.451,4.749 &#x9;&#x9;"/>
            <polygon fill="#9A916C"  points="2.451,2.45 3.009,3.008 3.009,4.19 2.451,4.749 &#x9;&#x9;"/>
        </g>
    </g>
</svg>
