<?xml version='1.0' encoding='UTF-8' standalone='no'?>
<!-- Created with Fritzing (http://www.fritzing.org/) -->
<svg xmlns="http://www.w3.org/2000/svg" height="0.3395in" x="0in"  y="0in" baseProfile="tiny" viewBox="0 0 15.367 8.6233" width="0.605in" version="1.2">
    <desc >
        <referenceFile >sparkfun-connectors_molex-1x6-ra_breadboard.svg</referenceFile>
    </desc>
    <g gorn="0.1"  id="breadboard">
        <path  fill="#1F7A34" stroke-width="0" stroke="none" d="M0,0l15.367,0 0,8.6233 -15.367,0 0,-8.6233z&#xa;M0.8255,7.6835a0.508,0.508 0 1 0 1.016,0 0.508,0.508 0 1 0 -1.016,0z&#xa;M3.3655,7.6835a0.508,0.508 0 1 0 1.016,0 0.508,0.508 0 1 0 -1.016,0z&#xa;M5.9055,7.6835a0.508,0.508 0 1 0 1.016,0 0.508,0.508 0 1 0 -1.016,0z&#xa;M8.4455,7.6835a0.508,0.508 0 1 0 1.016,0 0.508,0.508 0 1 0 -1.016,0z&#xa;M10.9855,7.6835a0.508,0.508 0 1 0 1.016,0 0.508,0.508 0 1 0 -1.016,0z&#xa;M13.5255,7.6835a0.508,0.508 0 1 0 1.016,0 0.508,0.508 0 1 0 -1.016,0z&#xa;"/>
        <circle gorn="0.1.1"  connectorname="1" id="connector0pin" fill="none" cx="1.3335" cy="7.6835" stroke-width="0.4318" r="0.7239" stroke="#9A916C"/>
        <path  fill="#9A916C" stroke-width="0" stroke="none" d="m0.3937,6.7437 1.8796,0 0,1.8796 -1.8796,0 0,-3zM0.8255,7.6835a0.508,0.508 0 1 0 1.016,0 0.508,0.508 0 1 0 -1.016,0z&#xa;"/>
        <circle gorn="0.1.3"  connectorname="2" id="connector1pin" fill="none" cx="3.8735" cy="7.6835" stroke-width="0.4318" r="0.7239" stroke="#9A916C"/>
        <circle gorn="0.1.4"  connectorname="3" id="connector2pin" fill="none" cx="6.4135" cy="7.6835" stroke-width="0.4318" r="0.7239" stroke="#9A916C"/>
        <circle gorn="0.1.5"  connectorname="4" id="connector3pin" fill="none" cx="8.9535" cy="7.6835" stroke-width="0.4318" r="0.7239" stroke="#9A916C"/>
        <circle gorn="0.1.6"  connectorname="5" id="connector4pin" fill="none" cx="11.4935" cy="7.6835" stroke-width="0.4318" r="0.7239" stroke="#9A916C"/>
        <circle gorn="0.1.7"  connectorname="6" id="connector5pin" fill="none" cx="14.0335" cy="7.6835" stroke-width="0.4318" r="0.7239" stroke="#9A916C"/>
        <line  y1="7.0485" y2="4.5085" stroke-width="0.127" x1="0.0635" x2="0.0635" stroke="#f8f8f8" stroke-linecap="round" class="other"/>
        <line  y1="7.0485" y2="4.5085" stroke-width="0.127" x1="15.3035" x2="15.3035" stroke="#f8f8f8" stroke-linecap="round" class="other"/>
        <line  y1="7.0485" y2="7.0485" stroke-width="0.127" x1="15.3035" x2="0.0635" stroke="#f8f8f8" stroke-linecap="round" class="other"/>
        <line  y1="4.5085" y2="4.5085" stroke-width="0.127" x1="15.3035" x2="14.0335" stroke="#f8f8f8" stroke-linecap="round" class="other"/>
        <line  y1="4.5085" y2="4.5085" stroke-width="0.127" x1="14.0335" x2="1.3335" stroke="#f8f8f8" stroke-linecap="round" class="other"/>
        <line  y1="4.5085" y2="4.5085" stroke-width="0.127" x1="1.3335" x2="0.0635" stroke="#f8f8f8" stroke-linecap="round" class="other"/>
        <line  y1="4.5085" y2="0.0635" stroke-width="0.127" x1="1.3335" x2="1.3335" stroke="#f8f8f8" stroke-linecap="round" class="other"/>
        <line  y1="0.0635" y2="0.0635" stroke-width="0.127" x1="1.3335" x2="14.0335" stroke="#f8f8f8" stroke-linecap="round" class="other"/>
        <line  y1="0.0635" y2="4.5085" stroke-width="0.127" x1="14.0335" x2="14.0335" stroke="#f8f8f8" stroke-linecap="round" class="other"/>
    </g>
</svg>
